<?xml version="1.0" encoding="utf-8"?>
<!-- Generator: Adobe Illustrator 19.1.0, SVG Export Plug-In . SVG Version: 6.00 Build 0)  -->
<svg version="1.1" id="Layer_1" xmlns="http://www.w3.org/2000/svg" xmlns:xlink="http://www.w3.org/1999/xlink" x="0px" y="0px"
  style="enable-background:new 0 0 26 18.6;" xml:space="preserve">
<style type="text/css">
  .st0{fill:none;}
  .st1{fill:#14499E;}
  .st2{fill:rgba(0,0,0,0.54);}
</style>
<polygon class="st0" points="20,17.1 24,17.1 24,10.1 20.1,10.1 20,10.2 "/>
<polygon class="st1" points="20,10.2 20.1,10.1 20,10.1 "/>
<g>
  <path class="st2" d="M4,4.6h10.7l2-2H4c-1.1,0-2,0.9-2,2v11H0v3h14v-3H4V4.6z"/>
  <path class="st2" d="M23,6.6h-2.8l-2.1,2H22v7h-4V8.7l-2,1.9v7c0,0.5,0.5,1,1,1h6c0.5,0,1-0.5,1-1v-10C24,7,23.5,6.6,23,6.6z"/>
  <polygon class="st2" points="6.6,6.4 5.2,7.8 10.8,13.4 22.8,1.4 21.4,0 10.8,10.6  "/>
</g>
</svg>
