<svg xmlns="http://www.w3.org/2000/svg" viewBox="0 0 221.42 355.61"><defs><style>.cls-1{fill:#87b272;}.cls-2{fill:#69b256;}.cls-3{fill:#449250;}.cls-10,.cls-11,.cls-4{fill:none;}.cls-4{stroke:#c69c6d;stroke-width:8px;}.cls-11,.cls-4{stroke-miterlimit:10;}.cls-5{fill:#69c;}.cls-6{opacity:0.1;}.cls-7{fill:#ffcd34;}.cls-8{fill:#a29a25;}.cls-9{fill-opacity:0.1;}.cls-10,.cls-11{stroke:#4d4d4d;stroke-linecap:round;}.cls-10{stroke-linejoin:round;stroke-width:4px;}.cls-11{stroke-width:3px;}</style></defs><title>Almost Overdue</title><g id="Layer_2" data-name="Layer 2"><g id="Layer_1-2" data-name="Layer 1"><path class="cls-1" d="M136.63,87c-10.38.48-20.15-5.54-28-16,.12-.2.24-.38.37-.58,7-10.79,16.09-17.47,26.29-17.94S155.09,57.85,162.88,68l.42.54C156.27,79.62,147,86.52,136.63,87Z"/><path class="cls-2" d="M136.63,87c-10.38.48-20.15-5.54-28-16,.12-.2.24-.38.37-.58,7-10.79,16.09-17.47,26.29-17.94S155.09,57.85,162.88,68l.42.54C156.27,79.62,147,86.52,136.63,87Z"/><path class="cls-3" d="M136.63,87c-10.38.48-20.15-5.54-28-16,.12-.2.24-.38.37-.58,18,4.48,21.93,27.25,53.9-2.51l.42.54C156.27,79.62,147,86.52,136.63,87Z"/><path class="cls-1" d="M70.41,127.59c9.68,3.77,20.86,1.2,31.66-6.17,0-.22-.11-.44-.17-.66-3.15-12.46-9.66-21.7-19.17-25.41s-20.48-1.29-31.1,5.78l-.56.38C54.16,114.3,60.73,123.81,70.41,127.59Z"/><path class="cls-2" d="M70.41,127.59c9.68,3.77,20.86,1.2,31.66-6.17,0-.22-.11-.44-.17-.66-3.15-12.46-9.66-21.7-19.17-25.41s-20.48-1.29-31.1,5.78l-.56.38C54.16,114.3,60.73,123.81,70.41,127.59Z"/><path class="cls-3" d="M70.41,127.59c9.68,3.77,20.86,1.2,31.66-6.17,0-.22-.11-.44-.17-.66-18.52-1.54-22,23-50.27-19.63l-.56.38C54.16,114.3,60.73,123.81,70.41,127.59Z"/><path class="cls-4" d="M123.41,33.21s-36,42-12,120"/><path class="cls-1" d="M151.12,32.81c-7.88,6.76-19.29,8-31.92,4.64l-.06-.68c-1.14-12.79,2-23.67,9.7-30.32s18.9-8,31.26-4.81l.66.17C162.06,14.9,159,26.05,151.12,32.81Z"/><path class="cls-2" d="M151.12,32.81c-7.88,6.76-19.29,8-31.92,4.64l-.06-.68c-1.14-12.79,2-23.67,9.7-30.32s18.9-8,31.26-4.81l.66.17C162.06,14.9,159,26.05,151.12,32.81Z"/><path class="cls-3" d="M151.12,32.81c-7.88,6.76-19.29,8-31.92,4.64l-.06-.68c17-7.57,33.77,6.94,41-35.13l.66.17C162.06,14.9,159,26.05,151.12,32.81Z"/><path class="cls-5" d="M193.77,191.57l-.88,5.19-.9,5.18L170.71,325.29a19.93,19.93,0,0,1-19.66,16.56H70.68a1.71,1.71,0,0,1-.39,0A19.89,19.89,0,0,1,51,325.29L29.74,201.94l-.9-5.18-.85-5,0-.17Z"/><polygon class="cls-6" points="193.77 191.57 192.89 196.76 191.99 201.94 29.74 201.94 28.84 196.76 27.99 191.74 27.96 191.57 193.77 191.57"/><path class="cls-6" d="M66.91,341.89l3.77,0a1.71,1.71,0,0,1-.39,0A19.88,19.88,0,0,1,51,325.29L29.74,201.94l15.17-.05Z"/><path class="cls-7" d="M211.91,160.48V183.8a7.76,7.76,0,0,1-7.77,7.77H17.59a7.76,7.76,0,0,1-7.77-7.77V160.48A7.71,7.71,0,0,1,13,154.22h0s0,0,0,0a7.75,7.75,0,0,1,4.57-1.48H204.14C204.65,152.71,207.41,152.76,211.91,160.48Z"/><path class="cls-6" d="M33.91,191.89c-7.78.14,1.54-.12-5.92-.15l0-.17H17.59a7.76,7.76,0,0,1-7.77-7.77V160.48A7.71,7.71,0,0,1,13,154.22h0s0,0,0,0a7.75,7.75,0,0,1,4.57-1.48l14.32.18C16.91,175.89,33.91,191.89,33.91,191.89Z"/><path class="cls-8" d="M25.11,355.41c10.3,1.31,20.53-3.92,29.2-13.69-.1-.2-.21-.4-.32-.6-6.09-11.31-14.66-18.69-24.79-20S9,324.88.45,334.33l-.45.51C6.12,346.49,14.8,354.11,25.11,355.41Z"/><path class="cls-9" d="M25.11,355.41c10.3,1.31,20.53-3.92,29.2-13.69-.1-.2-.21-.4-.32-.6C31.81,329.91,29.21,353,.45,334.33l-.45.51C6.12,346.49,14.8,354.11,25.11,355.41Z"/><path class="cls-8" d="M197.45,354.81c-10.22,1.86-20.71-2.81-29.9-12.1.09-.21.19-.41.29-.62,5.48-11.62,13.64-19.45,23.68-21.28s20.35,2.65,29.42,11.63l.48.48C215.93,344.88,207.67,353,197.45,354.81Z"/><path class="cls-9" d="M197.13,354.87c-10.14,1.84-20.56-2.78-29.76-12l.51-1.11c3.44-17.82,31.89,17.65,52.27-9.5l.85.86C215.49,345,207.27,353,197.13,354.87Z"/><path class="cls-10" d="M85.41,241.71v7.5"/><line class="cls-10" x1="144.41" y1="240.71" x2="144.41" y2="248.21"/><line class="cls-11" x1="104.41" y1="260.39" x2="125.41" y2="260.39"/></g></g></svg>
