<svg xmlns="http://www.w3.org/2000/svg" viewBox="0 0 202.09 341.89"><defs><style>.cls-1{fill:#87b272;}.cls-2{fill:#69b256;}.cls-3{fill:#449250;}.cls-4,.cls-8,.cls-9{fill:none;}.cls-4{stroke:#c69c6d;stroke-width:8px;}.cls-4,.cls-8{stroke-miterlimit:10;}.cls-5{fill:#69c;}.cls-6{opacity:0.1;}.cls-7{fill:#ffcd34;}.cls-8,.cls-9{stroke:#4d4d4d;stroke-linecap:round;}.cls-8{stroke-width:3px;}.cls-9{stroke-linejoin:round;stroke-width:4px;}</style></defs><title>Healthy</title><g id="Layer_2" data-name="Layer 2"><g id="Layer_1-2" data-name="Layer 1"><path class="cls-1" d="M126.81,87c-10.37.48-20.15-5.54-28-16,.12-.2.25-.38.37-.58,7-10.79,16.1-17.47,26.3-17.94S145.27,57.85,153.07,68l.41.54C146.46,79.62,137.19,86.52,126.81,87Z"/><path class="cls-2" d="M126.81,87c-10.37.48-20.15-5.54-28-16,.12-.2.25-.38.37-.58,7-10.79,16.1-17.47,26.3-17.94S145.27,57.85,153.07,68l.41.54C146.46,79.62,137.19,86.52,126.81,87Z"/><path class="cls-3" d="M126.81,87c-10.37.48-20.15-5.54-28-16,.12-.2.25-.38.37-.58,18,4.48,21.93,27.25,53.91-2.51l.41.54C146.46,79.62,137.19,86.52,126.81,87Z"/><path class="cls-1" d="M63.32,71.39C72.49,76.27,83.9,75,95.48,69c0-.23-.06-.45-.09-.68C93.71,55.55,88.33,45.6,79.32,40.81s-20.19-3.68-31.56,2.11l-.6.31C48.74,56.29,54.15,66.5,63.32,71.39Z"/><path class="cls-2" d="M63.32,71.39C72.49,76.27,83.9,75,95.48,69c0-.23-.06-.45-.09-.68C93.71,55.55,88.33,45.6,79.32,40.81s-20.19-3.68-31.56,2.11l-.6.31C48.74,56.29,54.15,66.5,63.32,71.39Z"/><path class="cls-3" d="M63.32,71.39C72.49,76.27,83.9,75,95.48,69c0-.23-.06-.45-.09-.68C77.17,64.6,66.09,85.71,47.76,42.92l-.6.31C48.74,56.29,54.15,66.5,63.32,71.39Z"/><path class="cls-1" d="M125.48,135.68c-10.25,1.7-20.66-3.14-29.7-12.58l.3-.62c5.67-11.53,14-19.22,24-20.89s20.3,3,29.23,12.11l.47.48C144.12,126.05,135.73,134,125.48,135.68Z"/><path class="cls-2" d="M125.48,135.68c-10.25,1.7-20.66-3.14-29.7-12.58l.3-.62c5.67-11.53,14-19.22,24-20.89s20.3,3,29.23,12.11l.47.48C144.12,126.05,135.73,134,125.48,135.68Z"/><path class="cls-3" d="M125.48,135.68c-10.25,1.7-20.66-3.14-29.7-12.58l.3-.62c18.44,2.34,30,21.23,53.25-8.78l.47.48C144.12,126.05,135.73,134,125.48,135.68Z"/><path class="cls-1" d="M60.59,127.59c9.68,3.77,20.87,1.2,31.66-6.17,0-.22-.11-.44-.16-.66-3.16-12.46-9.66-21.7-19.18-25.41s-20.47-1.29-31.09,5.78l-.57.38C44.35,114.3,50.92,123.81,60.59,127.59Z"/><path class="cls-2" d="M60.59,127.59c9.68,3.77,20.87,1.2,31.66-6.17,0-.22-.11-.44-.16-.66-3.16-12.46-9.66-21.7-19.18-25.41s-20.47-1.29-31.09,5.78l-.57.38C44.35,114.3,50.92,123.81,60.59,127.59Z"/><path class="cls-3" d="M60.59,127.59c9.68,3.77,20.87,1.2,31.66-6.17,0-.22-.11-.44-.16-.66-18.53-1.54-22,23-50.27-19.63l-.57.38C44.35,114.3,50.92,123.81,60.59,127.59Z"/><path class="cls-4" d="M113.59,33.21s-36,42-12,120"/><path class="cls-1" d="M141.3,32.81c-7.88,6.76-19.29,8-31.91,4.64,0-.22,0-.45-.07-.68C108.19,24,111.27,13.1,119,6.45s18.9-8,31.26-4.81l.65.17C152.25,14.9,149.19,26.05,141.3,32.81Z"/><path class="cls-2" d="M141.3,32.81c-7.88,6.76-19.29,8-31.91,4.64,0-.22,0-.45-.07-.68C108.19,24,111.27,13.1,119,6.45s18.9-8,31.26-4.81l.65.17C152.25,14.9,149.19,26.05,141.3,32.81Z"/><path class="cls-3" d="M141.3,32.81c-7.88,6.76-19.29,8-31.91,4.64,0-.22,0-.45-.07-.68,17-7.57,33.77,6.94,41-35.13l.65.17C152.25,14.9,149.19,26.05,141.3,32.81Z"/><path class="cls-5" d="M184,191.57l-.88,5.19-.9,5.18L160.89,325.29a19.93,19.93,0,0,1-19.66,16.56H60.86a1.71,1.71,0,0,1-.39,0,19.89,19.89,0,0,1-19.28-16.53L19.92,201.94l-.9-5.18-.85-5,0-.17Z"/><polygon class="cls-6" points="183.95 191.57 183.07 196.76 182.17 201.94 19.92 201.94 19.02 196.76 18.17 191.74 18.14 191.57 183.95 191.57"/><path class="cls-6" d="M57.09,341.89l3.77,0a1.71,1.71,0,0,1-.39,0,19.88,19.88,0,0,1-19.28-16.53L19.92,201.94l15.17-.05Z"/><path class="cls-7" d="M202.09,160.48V183.8a7.76,7.76,0,0,1-7.77,7.77H7.77A7.76,7.76,0,0,1,0,183.8V160.48a7.71,7.71,0,0,1,3.17-6.26h0s0,0,0,0a7.75,7.75,0,0,1,4.57-1.48H194.32C194.83,152.71,197.59,152.76,202.09,160.48Z"/><path class="cls-6" d="M24.09,191.89c-7.78.14,1.54-.12-5.92-.15l0-.17H7.77A7.76,7.76,0,0,1,0,183.8V160.48a7.71,7.71,0,0,1,3.17-6.26h0s0,0,0,0a7.75,7.75,0,0,1,4.57-1.48l14.32.18C7.09,175.89,24.09,191.89,24.09,191.89Z"/><path class="cls-8" d="M93.09,260s8.31,12.65,18,0"/><path class="cls-9" d="M72.59,243.71v7.5"/><line class="cls-9" x1="131.59" y1="242.71" x2="131.59" y2="250.21"/></g></g></svg>
