<svg xmlns="http://www.w3.org/2000/svg" viewBox="0 0 209.42 332.23"><defs><style>.cls-1,.cls-9{fill:none;stroke-miterlimit:10;}.cls-1{stroke:#c69c6d;stroke-width:8px;}.cls-2{fill:#87b272;}.cls-3{fill:#a87552;}.cls-4{fill-opacity:0.1;}.cls-5{fill:#69c;}.cls-6{opacity:0.1;}.cls-7{fill:#ffcd34;}.cls-8{fill:#c69c6d;}.cls-9{stroke:#4d4d4d;stroke-linecap:round;stroke-width:3px;}</style></defs><title>Overdue</title><g id="Layer_2" data-name="Layer 2"><g id="Layer_1-2" data-name="Layer 1"><path class="cls-1" d="M116.41,2.6s-36,42-12,120"/><path class="cls-2" d="M185.45,316.2c-10.22,1.86-20.71-2.81-29.9-12.1.09-.21.19-.41.29-.62,5.48-11.62,13.64-19.45,23.68-21.28s20.35,2.65,29.42,11.63l.48.48C203.93,306.27,195.67,314.35,185.45,316.2Z"/><path class="cls-3" d="M185.45,316.2c-10.22,1.86-20.71-2.81-29.9-12.1.09-.21.19-.41.29-.62,5.48-11.62,13.64-19.45,23.68-21.28s20.35,2.65,29.42,11.63l.48.48C203.93,306.27,195.67,314.35,185.45,316.2Z"/><path class="cls-4" d="M185.13,316.26c-10.14,1.84-20.56-2.78-29.76-12l.51-1.11c3.44-17.82,31.89,17.65,52.27-9.5l.85.86C203.49,306.4,195.27,314.42,185.13,316.26Z"/><path class="cls-2" d="M25.11,316.8c10.3,1.31,20.53-3.92,29.2-13.69-.1-.2-.21-.4-.32-.6-6.09-11.31-14.66-18.69-24.79-20S9,286.27.45,295.72l-.45.51C6.12,307.88,14.8,315.5,25.11,316.8Z"/><path class="cls-3" d="M25.11,316.8c10.3,1.31,20.53-3.92,29.2-13.69-.1-.2-.21-.4-.32-.6-6.09-11.31-14.66-18.69-24.79-20S9,286.27.45,295.72l-.45.51C6.12,307.88,14.8,315.5,25.11,316.8Z"/><path class="cls-4" d="M25.11,316.8c10.3,1.31,20.53-3.92,29.2-13.69-.1-.2-.21-.4-.32-.6C31.81,291.3,29.21,314.37.45,295.72l-.45.51C6.12,307.88,14.8,315.5,25.11,316.8Z"/><path class="cls-5" d="M186.77,161l-.88,5.19-.9,5.18L163.71,294.68a19.93,19.93,0,0,1-19.66,16.56H63.68a1.71,1.71,0,0,1-.39,0A19.89,19.89,0,0,1,44,294.68L22.74,171.33l-.9-5.18-.85-5,0-.17Z"/><polygon class="cls-6" points="186.77 160.96 185.89 166.15 184.99 171.33 22.74 171.33 21.84 166.15 20.99 161.13 20.96 160.96 186.77 160.96"/><path class="cls-6" d="M59.91,311.28l3.77,0a1.71,1.71,0,0,1-.39,0A19.88,19.88,0,0,1,44,294.68L22.74,171.33l15.17-.05Z"/><path class="cls-7" d="M204.91,129.87v23.32a7.76,7.76,0,0,1-7.77,7.77H10.59a7.76,7.76,0,0,1-7.77-7.77V129.87A7.71,7.71,0,0,1,6,123.61H6s0,0,0,0a7.75,7.75,0,0,1,4.57-1.48H197.14C197.65,122.1,200.41,122.15,204.91,129.87Z"/><path class="cls-6" d="M26.91,161.28c-7.78.14,1.54-.12-5.92-.15l0-.17H10.59a7.76,7.76,0,0,1-7.77-7.77V129.87A7.71,7.71,0,0,1,6,123.61H6s0,0,0,0a7.75,7.75,0,0,1,4.57-1.48l14.32.18C9.91,145.28,26.91,161.28,26.91,161.28Z"/><path class="cls-8" d="M42.53,328.91c-10.38-.3-19.67-7-26.74-18l.42-.55c7.76-10.23,17.36-16.2,27.57-15.91s19.36,6.81,26.37,17.47c.12.2.25.38.37.57C62.68,323,52.92,329.22,42.53,328.91Z"/><path class="cls-4" d="M42.53,328.91c-10.38-.3-19.67-7-26.74-18l.42-.55c11.53,20.1,43-11.05,53.94,1.56.12.2.25.38.37.57C62.68,323,52.92,329.22,42.53,328.91Z"/><path class="cls-2" d="M125,304.82s0,0,0,0a.08.08,0,0,0,0,0c-3.19,12.42-9.69,21.63-19.18,25.33l-.19.07c-.31.11-.61.22-.91.31-9.61,3.24-20.59.4-31.14-7a1.6,1.6,0,0,1,0-.21c.05-.15.08-.31.12-.45s0-.15,0-.2.09-.31.13-.46c3.35-12,9.91-20.81,19.34-24.24s20.4-.9,30.92,6.23l.26.17.52.35h0Z"/><path class="cls-8" d="M125,304.82s0,0,0,0a.08.08,0,0,0,0,0c-3.19,12.42-9.69,21.63-19.18,25.33l-.19.07c-.31.11-.61.22-.91.31-9.61,3.24-20.59.4-31.14-7a1.6,1.6,0,0,1,0-.21c.05-.15.08-.31.12-.45s0-.15,0-.2.09-.31.13-.46c3.35-12,9.91-20.81,19.34-24.24s20.4-.9,30.92,6.23l.26.17.52.35h0Z"/><path class="cls-4" d="M125,304.87c-3.19,12.42-9.69,21.63-19.18,25.33l-.19.07c-.31.11-.61.22-.91.31-9.61,3.24-20.59.4-31.14-7a1.6,1.6,0,0,1,0-.21c.05-.15.08-.31.12-.45s0-.15,0-.2c-.08-7.08,42.46,2.07,50.4-18.4Z"/><path class="cls-8" d="M152.77,331.36c10,2.71,20.87-1.06,30.81-9.55-.07-.21-.16-.42-.24-.64-4.48-12-11.94-20.53-21.8-23.19s-20.5.93-30.29,9.11l-.52.43C135.19,319.9,142.74,328.65,152.77,331.36Z"/><path class="cls-4" d="M152.77,331.36c10,2.71,20.87-1.06,30.81-9.55-.07-.21-.16-.42-.24-.64-16.84,15.92-38-23-52.09-14.08l-.52.43C135.19,319.9,142.74,328.65,152.77,331.36Z"/><path class="cls-9" d="M99.91,233s8.3-12.65,18,0"/><path class="cls-9" d="M71.91,210.38s8.3,12.65,18,0"/><path class="cls-9" d="M124.91,210.38s8.3,12.65,18,0"/></g></g></svg>
